<svg xmlns="http://www.w3.org/2000/svg" viewBox="0 0 64 64" role="img" aria-label="Ayush Verma avatar">
  <defs>
    <linearGradient id="bg" x1="10" x2="54" y1="8" y2="58" gradientUnits="userSpaceOnUse">
      <stop offset="0" stop-color="#11b8a8"/>
      <stop offset="0.52" stop-color="#2753ff"/>
      <stop offset="1" stop-color="#f59e0b"/>
    </linearGradient>
    <linearGradient id="face" x1="20" x2="44" y1="16" y2="51" gradientUnits="userSpaceOnUse">
      <stop offset="0" stop-color="#ffe2c6"/>
      <stop offset="1" stop-color="#d99a6c"/>
    </linearGradient>
  </defs>
  <rect width="64" height="64" rx="16" fill="#07111f"/>
  <circle cx="32" cy="32" r="28" fill="url(#bg)"/>
  <path fill="#121826" d="M17 58c1.6-10.1 7.2-16.1 15-16.1S45.4 47.9 47 58H17Z"/>
  <circle cx="32" cy="27" r="13" fill="url(#face)"/>
  <path fill="#111827" d="M20.8 25.8c.7-8.3 5.4-13.2 12.1-13.2 5.9 0 10.1 3.8 11.1 10.4-2.7-1.7-5.7-2.6-9.1-2.6-5.6 0-9.8 1.8-14.1 5.4Z"/>
  <path fill="#07111f" fill-opacity=".22" d="M45.7 58H32V40c7.4 0 12.3 6.3 13.7 18Z"/>
  <path fill="#fff" d="M19.2 55.2 27.8 31h8.4l8.6 24.2h-6.9l-1.3-4.3h-9.1l-1.3 4.3h-7Zm9.9-9.6h5.8L32 36l-2.9 9.6Z"/>
</svg>
